<svg height='100px' width='100px'  fill="#000000" xmlns="http://www.w3.org/2000/svg" xmlns:xlink="http://www.w3.org/1999/xlink" version="1.1" x="0px" y="0px" viewBox="0 0 90 90" enable-background="new 0 0 90 90" xml:space="preserve"><path d="M82.6,59.1l-0.3-1.2H71.9c0.5-5.3-0.1-9.3-0.1-9.6l-0.2-1.4H11.3l-0.1,1.4c0,0.2-0.1,1.2-0.1,2.7H6.9l-0.1,1.4  c-0.1,0.7-1.7,17.6,8.1,28.4c5.1,5.7,12.5,8.7,21.7,8.7h0c9.2,0,18.8-4.8,24.7-10.3c1.2-1,2.4-2,3.4-3.2c0.6-0.7,1.2-1.5,1.7-2.2  c1.9,0.4,3.7,0.6,5.3,0.6c3.6,0,6.4-1,8.4-3C84.6,67.1,82.7,59.4,82.6,59.1z M14.3,50.1h54.5c0.3,4,0.6,15.9-6.4,24  c-4.7,5.5-11.9,8.2-21.3,8.2c-8.3-0.1-14.8-2.6-19.4-7.7C14.4,66.6,14.1,54.3,14.3,50.1z M77.9,69.3c-1.9,1.9-5.1,2.4-9.6,1.7  c1.7-3.3,2.7-6.7,3.2-9.9h8.2C80,63,80.2,67,77.9,69.3z"></path>
<g id="steam">
<polygon 
points="20.2,31 16.3,37.5 19.1,39.1 23.9,31 19.6,23.7 23.9,16.4 19.6,9.1 23.4,2.6 20.7,1 15.8,9.1 20.2,16.4 15.8,23.7   ">
</polygon><polygon points="34,31 30.1,37.5 32.9,39.1 37.7,31 33.3,23.7 37.7,16.4 33.3,9.1 37.2,2.6 34.5,1 29.6,9.1 34,16.4 29.6,23.7 "></polygon><polygon points="47,31 43.2,37.5 45.9,39.1 50.8,31 46.4,23.7 50.8,16.4 46.4,9.1 50.3,2.6 47.5,1 42.7,9.1 47,16.4 42.7,23.7 "></polygon><polygon points="60.2,31 56.3,37.5 59.1,39.1 63.9,31 59.5,23.7 63.9,16.4 59.5,9.1 63.4,2.6 60.7,1 55.8,9.1 60.2,16.4 55.8,23.7   "></polygon>
</g>
</svg>